<?xml version="1.0" standalone="no"?>
<!DOCTYPE svg PUBLIC "-//W3C//DTD SVG 20010904//EN"
 "http://www.w3.org/TR/2001/REC-SVG-20010904/DTD/svg10.dtd">
<svg version="1.0" xmlns="http://www.w3.org/2000/svg"
 width="512.000000pt" height="512.000000pt" viewBox="0 0 512.000000 512.000000"
 preserveAspectRatio="xMidYMid meet">
<metadata>
Created by potrace 1.11, written by Peter Selinger 2001-2013
</metadata>
<g transform="translate(0.000000,512.000000) scale(0.100000,-0.100000)"
fill="#000000" stroke="none">
<path d="M2477 5001 c-16 -30 -66 -113 -112 -185 -120 -190 -201 -358 -235
-484 l-16 -62 -47 47 c-68 70 -120 134 -194 239 -37 52 -70 94 -74 94 -15 0
-37 -44 -45 -85 -3 -22 -8 -49 -10 -60 -2 -11 -7 -45 -10 -75 -3 -30 -7 -67
-8 -81 -2 -15 3 -55 10 -90 8 -35 16 -73 18 -84 2 -11 13 -56 24 -100 11 -44
21 -91 22 -105 5 -58 6 -58 -77 -55 -76 2 -80 1 -170 -47 l-92 -49 -58 30
c-39 19 -70 45 -95 78 -20 26 -45 57 -55 68 -10 11 -31 38 -47 60 -80 109
-327 316 -391 327 -26 4 -24 -26 5 -108 12 -32 23 -66 25 -74 1 -8 10 -40 19
-70 14 -49 20 -85 32 -173 2 -15 6 -47 9 -70 3 -23 8 -60 11 -81 8 -56 52
-192 81 -250 30 -59 104 -140 193 -209 36 -28 66 -51 67 -52 3 -1 52 -218 55
-245 2 -14 13 -41 26 -61 18 -30 23 -57 28 -147 5 -109 5 -111 -19 -126 -13
-9 -36 -43 -51 -76 -15 -33 -32 -60 -36 -60 -8 0 -23 -34 -25 -55 0 -5 -14
-11 -31 -13 -48 -5 -71 -37 -80 -112 -10 -83 -11 -257 -2 -290 4 -14 13 -47
21 -75 9 -27 18 -69 22 -92 6 -40 6 -42 -32 -59 -44 -20 -231 -204 -253 -249
-8 -17 -23 -43 -33 -58 -11 -16 -32 -54 -47 -86 -28 -57 -165 -206 -274 -298
-47 -40 -48 -43 -53 -105 -5 -79 -8 -82 -228 -248 -93 -70 -177 -136 -186
-146 -9 -11 -25 -42 -37 -71 -20 -47 -22 -69 -22 -250 0 -109 5 -218 11 -243
6 -25 12 -56 14 -70 9 -64 -18 -60 370 -60 l353 0 39 59 c21 33 48 77 61 98
13 21 41 58 63 82 63 69 103 120 171 217 90 131 188 240 210 236 71 -12 153
-75 162 -124 2 -15 7 -31 10 -36 10 -17 20 -184 20 -354 l1 -178 1312 0 1311
0 43 68 c58 90 65 102 82 137 8 17 34 50 59 75 25 25 48 53 51 63 4 9 10 17
14 17 8 0 149 -285 166 -336 l9 -24 294 0 294 0 0 260 0 261 -29 57 c-23 45
-29 71 -30 122 0 92 -10 254 -16 287 -34 180 -77 306 -151 437 -105 189 -168
248 -364 347 -55 28 -105 60 -111 72 -7 11 -20 30 -30 41 -11 11 -19 22 -19
25 0 13 -72 54 -136 77 -98 35 -138 58 -219 124 -87 71 -120 90 -216 125 -69
24 -184 82 -212 105 -107 90 -141 138 -175 240 -34 105 -40 131 -47 205 -11
118 -18 152 -38 185 -11 19 -26 38 -31 42 -6 4 -18 12 -26 17 -12 8 -8 19 22
63 44 64 56 94 64 161 20 156 0 256 -47 242 -14 -5 -19 -1 -20 12 -1 34 -8 56
-19 63 -6 3 -13 35 -16 71 -11 124 -59 280 -101 330 -9 11 -15 55 -18 135 -6
155 -8 169 -45 257 -36 86 -59 116 -192 247 -54 53 -98 103 -99 111 -8 118
-18 177 -30 184 -5 4 -9 0 -9 -7 0 -7 -14 -30 -31 -51 -35 -43 -26 -47 -104
51 -22 28 -43 51 -46 52 -4 0 -12 -13 -19 -30 -23 -55 -39 -31 -49 75 l-6 60
-28 -54z"/>
</g>
</svg>
